<svg width="16" height="15" viewBox="0 0 16 15" fill="none" xmlns="http://www.w3.org/2000/svg">
<path d="M2.84375 2.24805C4.26953 0.822266 5.98828 0.109375 8 0.109375C10.0117 0.109375 11.7207 0.822266 13.127 2.24805C14.5527 3.6543 15.2656 5.36328 15.2656 7.375C15.2656 9.38672 14.5527 11.1055 13.127 12.5312C11.7207 13.9375 10.0117 14.6406 8 14.6406C5.98828 14.6406 4.26953 13.9375 2.84375 12.5312C1.4375 11.1055 0.734375 9.38672 0.734375 7.375C0.734375 5.36328 1.4375 3.6543 2.84375 2.24805ZM11.3398 6.87695L7.35547 2.92188C7.21875 2.76563 7.05273 2.6875 6.85742 2.6875C6.66211 2.6875 6.49609 2.76563 6.35938 2.92188L5.89062 3.39062C5.73438 3.54687 5.65625 3.72266 5.65625 3.91797C5.65625 4.09375 5.73438 4.25 5.89062 4.38672L8.84961 7.375L5.89062 10.3633C5.73438 10.5 5.65625 10.666 5.65625 10.8613C5.65625 11.0566 5.73438 11.2227 5.89062 11.3594L6.35938 11.8281C6.51562 11.9844 6.68164 12.0625 6.85742 12.0625C7.05273 12.0625 7.21875 11.9844 7.35547 11.8281L11.3398 7.87305C11.4766 7.73633 11.5449 7.57031 11.5449 7.375C11.5449 7.17969 11.4766 7.01367 11.3398 6.87695Z" fill="#834BE1"/>
</svg>
