<svg width="69" height="69" viewBox="0 0 69 69" fill="none" xmlns="http://www.w3.org/2000/svg">
<path d="M65.5212 59.0714L43.0659 23.6696V5.85714H45.923C47.4855 5.85714 48.7801 4.5625 48.7801 3C48.7801 1.4375 47.4855 0.142854 45.923 0.142854H23.0659C21.5034 0.142854 20.2087 1.4375 20.2087 3C20.2087 4.5625 21.5034 5.85714 23.0659 5.85714H25.923V23.6696L3.46763 59.0714C0.11942 64.3839 2.48549 68.7143 8.78013 68.7143H60.2087C66.5034 68.7143 68.8694 64.3839 65.5212 59.0714ZM30.7444 26.7054L31.6373 25.3214V23.6696V5.85714H37.3516V23.6696V25.3214L38.2444 26.7054L50.3873 45.8571H18.6016L30.7444 26.7054Z" fill="#492B7C"/>
</svg>
