<svg width="19" height="20" viewBox="0 0 19 20" fill="none" xmlns="http://www.w3.org/2000/svg">
<path d="M13.4941 7.34152L12.2999 6.14732L15.57 2.87723L16.7642 4.07143L13.4941 7.34152ZM18.483 4.07143C18.483 3.8817 18.416 3.70312 18.2821 3.5692L16.0723 1.35937C15.9383 1.22545 15.7598 1.15848 15.57 1.15848C15.3803 1.15848 15.2017 1.22545 15.0678 1.35937L0.715123 15.7121C0.581194 15.846 0.51423 16.0246 0.51423 16.2143C0.51423 16.404 0.581194 16.5826 0.715123 16.7165L2.92494 18.9263C3.05887 19.0603 3.23744 19.1272 3.42718 19.1272C3.61691 19.1272 3.79548 19.0603 3.92941 18.9263L18.2821 4.57366C18.416 4.43973 18.483 4.26116 18.483 4.07143ZM3.40485 1.95089L3.07003 0.857141L2.73521 1.95089L1.64146 2.28571L2.73521 2.62054L3.07003 3.71429L3.40485 2.62054L4.49861 2.28571L3.40485 1.95089ZM7.31111 3.75893L6.64146 1.57143L5.97182 3.75893L3.78432 4.42857L5.97182 5.09821L6.64146 7.28571L7.31111 5.09821L9.49861 4.42857L7.31111 3.75893ZM17.6906 9.09375L17.3557 8L17.0209 9.09375L15.9272 9.42857L17.0209 9.76339L17.3557 10.8571L17.6906 9.76339L18.7843 9.42857L17.6906 9.09375ZM10.5477 1.95089L10.2129 0.857141L9.87807 1.95089L8.78432 2.28571L9.87807 2.62054L10.2129 3.71429L10.5477 2.62054L11.6415 2.28571L10.5477 1.95089Z" fill="#492B7C"/>
</svg>
