<svg width="23" height="16" viewBox="0 0 23 16" fill="none" xmlns="http://www.w3.org/2000/svg">
<path d="M11.5028 4.57143V8.85714H7.21708V4.57143H11.5028ZM12.9314 11.7143H5.7885V13.1429H12.9314V11.7143ZM12.9314 3.14286H5.7885V10.2857H12.9314V3.14286ZM20.0742 11.7143H14.3599V13.1429H20.0742V11.7143ZM20.0742 8.85714H14.3599V10.2857H20.0742V8.85714ZM20.0742 6H14.3599V7.42857H20.0742V6ZM20.0742 3.14286H14.3599V4.57143H20.0742V3.14286ZM2.93136 13.8571C2.93136 14.2478 2.6077 14.5714 2.21708 14.5714C1.82645 14.5714 1.50279 14.2478 1.50279 13.8571V3.14286H2.93136V13.8571ZM21.5028 13.8571C21.5028 14.2478 21.1791 14.5714 20.7885 14.5714H4.23717C4.31529 14.3482 4.35993 14.1027 4.35993 13.8571V1.71429H21.5028V13.8571ZM22.9314 0.285713H2.93136V1.71429H0.0742188V13.8571C0.0742188 15.0402 1.03404 16 2.21708 16H20.7885C21.9715 16 22.9314 15.0402 22.9314 13.8571V0.285713Z" fill="#180133"/>
</svg>
