<svg width="18" height="18" viewBox="0 0 18 18" fill="none" xmlns="http://www.w3.org/2000/svg">
<path d="M13.9972 10.2857C13.0597 10.2857 12.2003 10.654 11.5642 11.2455L7.54632 9.23661C7.55748 9.11384 7.56864 8.97991 7.56864 8.85714C7.56864 8.73437 7.55748 8.60045 7.54632 8.47768L11.5642 6.46875C12.2003 7.06027 13.0597 7.42857 13.9972 7.42857C15.9727 7.42857 17.5686 5.83259 17.5686 3.85714C17.5686 1.8817 15.9727 0.285713 13.9972 0.285713C12.0218 0.285713 10.4258 1.8817 10.4258 3.85714C10.4258 3.97991 10.4369 4.11384 10.4481 4.23661L6.43025 6.24554C5.79408 5.65402 4.93471 5.28571 3.99721 5.28571C2.02176 5.28571 0.425781 6.8817 0.425781 8.85714C0.425781 10.8326 2.02176 12.4286 3.99721 12.4286C4.93471 12.4286 5.79408 12.0603 6.43025 11.4687L10.4481 13.4777C10.4369 13.6004 10.4258 13.7344 10.4258 13.8571C10.4258 15.8326 12.0218 17.4286 13.9972 17.4286C15.9727 17.4286 17.5686 15.8326 17.5686 13.8571C17.5686 11.8817 15.9727 10.2857 13.9972 10.2857Z" fill="#180133"/>
</svg>
