<svg width="14" height="18" viewBox="0 0 14 18" fill="none" xmlns="http://www.w3.org/2000/svg">
<path d="M1.35475 18C1.03475 18 0.79475 17.864 0.63475 17.592C0.47475 17.32 0.46675 17.048 0.61075 16.776L4.37875 9.312C4.42675 9.184 4.42675 9.056 4.37875 8.928L0.73075 1.704C0.58675 1.432 0.59475 1.16 0.75475 0.887999C0.91475 0.615999 1.15475 0.48 1.47475 0.48H3.22675C3.64275 0.48 4.01875 0.592 4.35475 0.816C4.70675 1.04 4.96275 1.344 5.12275 1.728L7.21075 6.744C7.21075 6.76 7.21875 6.768 7.23475 6.768C7.25075 6.768 7.25875 6.76 7.25875 6.744L9.34675 1.728C9.50675 1.344 9.75475 1.04 10.0908 0.816C10.4428 0.592 10.8268 0.48 11.2428 0.48H12.8988C13.2028 0.48 13.4348 0.615999 13.5948 0.887999C13.7708 1.16 13.7868 1.432 13.6428 1.704L9.99475 8.928C9.94675 9.056 9.94675 9.184 9.99475 9.312L13.7628 16.776C13.9068 17.048 13.8908 17.32 13.7148 17.592C13.5548 17.864 13.3228 18 13.0188 18H11.1708C10.7548 18 10.3788 17.888 10.0428 17.664C9.70675 17.424 9.45875 17.112 9.29875 16.728L7.16275 11.496C7.16275 11.48 7.15475 11.472 7.13875 11.472C7.12275 11.472 7.11475 11.48 7.11475 11.496L4.97875 16.728C4.81875 17.112 4.56275 17.424 4.21075 17.664C3.87475 17.888 3.50675 18 3.10675 18H1.35475Z" fill="#B3B3B3"/>
</svg>
